<svg width="20" height="20" viewBox="0 0 20 20" fill="none" xmlns="http://www.w3.org/2000/svg">
<path d="M18.3363 6.92378C19.2336 6.02646 19.1869 5.25541 18.1754 4.24383L15.6019 1.67043C14.5904 0.658855 13.8186 0.612877 12.922 1.50952L10.0391 4.39245C9.13528 5.29624 9.18841 6.06082 10.2 7.07239L12.7734 9.6458C13.7799 10.6652 14.5502 10.7098 15.4475 9.8125L18.3363 6.92378Z" fill="#FF7020"/>
<path d="M18.0161 14.1952C18.0161 12.7659 17.4393 12.1882 16.0073 12.1882H12.3679C10.9373 12.1882 10.3591 12.7659 10.3591 14.1952V17.8313C10.3591 19.2626 10.9373 19.8384 12.3679 19.8384H16.0073C17.4398 19.8384 18.0161 19.2607 18.0161 17.8313V14.1952Z" fill="#FF7020"/>
<path d="M7.65693 3.61954C7.65693 2.35054 7.07872 1.83832 5.64813 1.83832H2.00879C0.578209 1.83832 0 2.3515 0 3.61954V7.69662C0 8.97477 0.578209 9.47785 2.00879 9.47785H5.64813C7.08065 9.487 7.65693 8.97381 7.65693 7.70481V3.61954Z" fill="#FF7020"/>
<path d="M7.65693 14.1952C7.65693 12.7659 7.08016 12.1882 5.64813 12.1882H2.00879C0.578209 12.1882 0 12.7659 0 14.1952V17.8313C0 19.2626 0.578209 19.8384 2.00879 19.8384H5.64813C7.08065 19.8384 7.65693 19.2607 7.65693 17.8313V14.1952Z" fill="#FF7020"/>
</svg>
