<svg width="80" height="17" viewBox="0 0 80 17" fill="none" xmlns="http://www.w3.org/2000/svg">
<path d="M8.65655 0.89917L10.4334 6.36769H16.1833L11.5315 9.74743L13.3084 15.2159L8.65655 11.8362L4.00475 15.2159L5.78158 9.74743L1.12978 6.36769H6.87972L8.65655 0.89917Z" fill="#FED550"/>
<path d="M24.4848 0.89917L26.2616 6.36769H32.0116L27.3598 9.74743L29.1366 15.2159L24.4848 11.8362L19.833 15.2159L21.6098 9.74743L16.958 6.36769H22.708L24.4848 0.89917Z" fill="#FED550"/>
<path d="M40.313 0.89917L42.0899 6.36769H47.8398L43.188 9.74743L44.9648 15.2159L40.313 11.8362L35.6612 15.2159L37.4381 9.74743L32.7863 6.36769H38.5362L40.313 0.89917Z" fill="#FED550"/>
<path d="M56.1413 0.89917L57.9181 6.36769H63.6681L59.0163 9.74743L60.7931 15.2159L56.1413 11.8362L51.4895 15.2159L53.2663 9.74743L48.6145 6.36769H54.3645L56.1413 0.89917Z" fill="#FED550"/>
<path d="M71.9695 0.89917L73.7463 6.36769H79.4963L74.8445 9.74743L76.6213 15.2159L71.9695 11.8362L67.3177 15.2159L69.0945 9.74743L64.4427 6.36769H70.1926L71.9695 0.89917Z" fill="#FED550"/>
</svg>
